<?xml version="1.0" encoding="UTF-8"?>
<svg id="Layer_1" xmlns="http://www.w3.org/2000/svg" version="1.1" viewBox="0 0 1000 1194.6">
  <!-- Generator: Adobe Illustrator 29.5.0, SVG Export Plug-In . SVG Version: 2.1.0 Build 137)  -->
  <defs>
    <style>
      .st0 {
        fill: #2b4f4f;
      }
    </style>
  </defs>
  <path class="st0" d="M854.9,659.9c-.3,2.5-.6,4.8-.9,7.1-.9,7-1.9,14-3,20.7,9.1-2.7,18.1-5.2,27-7.4.5-3.3,1-6.6,1.4-10,.7-5.1,1.4-10.7,2.1-17.1-8.9,1.9-17.8,4.2-26.6,6.7M886.5,470.2c-.2-17.7-.4-36.1-.4-53.8V107.2l-179.1-32.7c-51.3-9.4-103.7-15.4-155.8-18-38.7-1.9-77.7-1.9-115.9,0-52.3,2.5-105.1,8.6-156.8,18l-179.1,32.7v297.1c0,8.8,0,17.6-.1,26.5,0,9.4-.2,18.8-.3,28.3-.7,53.7-1.3,109.2,2.9,164.4,0,.2,0,.5,0,.7.8,9.7,1.6,18.5,2.5,26.8,8.7,1.8,17.4,3.2,26.2,3.9-.3-2.2-.5-4.4-.7-6.6-.7-6.1-1.3-12.5-1.9-19.4-.2-2.4-.4-4.9-.6-7.4-4.1-54.1-3.5-109-2.8-162.2.1-9.6.2-19,.3-28.4,0-8.9.1-17.8.1-26.7V128.6l158.1-28.9c50.7-9.2,102.3-15.1,153.5-17.6,37.4-1.8,75.6-1.8,113.4,0,51,2.5,102.2,8.4,152.4,17.6l158.1,28.9v287.8c0,17.8.2,36.3.4,54.1.5,45.8,1,93.1-1.7,139.3-.1,2.5-.3,5.1-.4,7.6h0c-.4,6.5-.9,13-1.5,19.4,8.9-2.4,17.6-4.7,26.2-6.5.3-3.8.5-7.5.8-11.3.3-5,.6-10.1.9-15.1,2.3-44.8,1.8-89.9,1.3-133.8M846.9,710.9c0,0-.2,0-.3,0-.4,2.1-.9,4.1-1.3,6.1-1.6,7.5-3.5,15-5.6,22.4-.4,1.7-.9,3.3-1.4,5-16.5,57.9-42.8,105.2-80.4,144.5-68.9,72.2-165.5,113.6-265.3,113.6s-191.7-39.4-260-108.2c-38.6-38.9-66-86.5-83.4-145.3-1-3.3-2-6.7-2.9-10.1-1.5-5.6-2.9-11.2-4.2-16.8l-27.6-6.4c0,.1,0,.3,0,.4,1.9,9.1,4.1,18.4,6.6,27.7.1.5.3,1.1.4,1.7,18.5,67.9,48.8,122.4,92.9,166.8,73.1,73.5,174.5,115.7,278.2,115.7s210.1-44.3,283.8-121.5c40.5-42.5,68.8-93.3,86.5-155.2,1.9-6.6,3.7-13.4,5.3-20.1.7-2.9,1.4-5.9,2.1-8.8,1.3-6.1,2.6-12.6,3.9-19.3-9.2,2.3-18.4,4.9-27.4,7.6M136.3,693.3c-1-5.7-2-11.7-2.9-17.9-8.8-1.4-17.7-3.4-26.7-5.7,1.3,9.4,2.7,18.7,4.2,27.4,8.9,2,17.9,3.7,26.9,4.7-.5-2.8-1-5.6-1.5-8.6"/>
  <path class="st0" d="M152.7,895.9c5.4,7.3,7.3,15.6,5.6,24.7l-8.2-1.5c1-6.5-.5-12.4-4.5-17.9-3.7-4.9-8.4-7.8-14.3-8.7-5.9-.8-11.5.7-16.7,4.5-5.2,3.8-8.2,8.7-9.1,14.6-.9,5.9.4,11.3,4.1,16.2,3.1,4.2,7.1,7,12,8.1l10.2-7.6-8.4-11.3,5.9-4.3,14,18.9-19,14c-9.2-1-16.5-5.2-22-12.6-5.2-7-7.1-14.7-5.8-23.3,1.3-8.5,5.4-15.4,12.4-20.5,7-5.2,14.7-7.1,23.3-5.8,8.5,1.3,15.4,5.4,20.5,12.3"/>
  <path class="st0" d="M170.9,956.4l-2.4-2.6c-3.4-3.6-7.1-5.3-11-5-3.9.3-7.7,2.2-11.4,5.7l-14.1,13.2-6-6.4,32-30.1,4.1,4.3-7.1,8c7.9-2.6,14.9-.7,21.1,5.9l1,1.1-6.1,5.8Z"/>
  <path class="st0" d="M194.5,966.4c3.5,3.1,5.8,6.6,6.9,10.4,1.1,3.8.9,7.8-.5,11.8-.6,1.9-1.6,3.8-3.2,5.7-1.5,1.9-3,3.3-4.5,4.2l-25-22.2c-2.5,2.8-3.5,5.9-3.1,9.2.4,3.3,2.2,6.3,5.2,9,3.8,3.4,8.2,5.5,13.1,6.5l.2,7c-7.4-.5-13.6-3-18.6-7.5-5-4.5-7.7-9.7-8.1-15.6-.4-6,1.6-11.4,6-16.3,4.2-4.8,9.3-7.4,15.2-8,5.9-.5,11.4,1.4,16.4,5.8M189.3,972.4c-2.7-2.4-5.7-3.6-9-3.5-3.3,0-6,1.2-8.2,3.4l18.9,16.7c1-1.1,1.7-2.4,2.1-3.9.7-2.2.7-4.4,0-6.7-.6-2.2-1.9-4.2-3.9-6"/>
  <path class="st0" d="M230.6,995.1c3.8,2.7,6.4,5.9,7.9,9.7,1.5,3.7,1.7,7.6.7,11.8-.4,2-1.2,4-2.6,6-1.3,2-2.7,3.6-4.1,4.6l-27.2-19.5c-2.2,3-2.9,6.2-2.1,9.5.8,3.3,2.8,6.1,6.1,8.4,4.1,3,8.7,4.7,13.7,5.1l.9,6.9c-7.4.2-13.9-1.6-19.3-5.5-5.5-3.9-8.7-8.8-9.7-14.7-1-5.9.5-11.5,4.3-16.8,3.7-5.2,8.5-8.4,14.3-9.5,5.8-1.1,11.5.2,16.9,4.1M226,1001.6c-3-2.1-6-3-9.3-2.6-3.2.4-5.8,1.8-7.8,4.2l20.5,14.7c.9-1.2,1.4-2.6,1.6-4.1.5-2.3.3-4.5-.6-6.6-.9-2.2-2.4-4-4.5-5.5"/>
  <path class="st0" d="M272.2,1021.4c5.3,3,8.5,7,9.5,11.9,1,4.9,0,10.2-3.3,16l-11.5,20.3-7.6-4.3,11.3-19.9c4.3-7.6,3.1-13.4-3.7-17.2-3.4-1.9-6.7-2.4-10-1.3-3.2,1.1-6,3.7-8.4,7.9l-10.5,18.5-7.6-4.3,21.6-38.2,5.2,2.9-3.6,7.6c2.8-1.8,5.9-2.7,9.2-2.6,3.3.1,6.4,1,9.4,2.7"/>
  <path class="st0" d="M349.6,1037.2c8.6,3.1,14.7,8.9,18.3,17.5l-7.7,3.3c-2.8-5.9-7.3-10-13.7-12.3-5.8-2.1-11.4-1.9-16.7.7-5.4,2.6-9.2,6.9-11.4,12.9-2.2,6.1-2.1,11.9.4,17.2,2.5,5.4,6.6,9.1,12.4,11.2,6.4,2.3,12.6,2.1,18.4-.7l3.8,7.5c-8.3,4.2-16.7,4.8-25.3,1.7-8.1-3-14-8.3-17.7-16.2-3.6-7.8-4-15.8-1-24,2.9-8.1,8.3-14.1,16.1-17.7,7.8-3.7,15.8-4,23.9-1.1"/>
  <path class="st0" d="M400.3,1115.5l-5.8-1.4,1.3-8c-2.2,2.2-4.9,3.7-8,4.6-3.2.9-6.4.9-9.7.1-6-1.4-10.6-4.7-13.6-9.9-3-5.2-3.8-10.8-2.4-16.9,1.5-6.2,4.7-10.9,9.7-14.2,5-3.3,10.5-4.2,16.6-2.8,3.3.8,6.2,2.3,8.6,4.5,2.4,2.2,4.1,4.8,5.1,7.7l2.4-7.7,5.8,1.4-10.1,42.7ZM372.3,1096.7c2,3.2,4.8,5.2,8.5,6.1,3.6.9,7.1.3,10.4-1.7,3.3-2,5.4-4.9,6.3-8.9.9-4,.4-7.6-1.7-10.8-2-3.2-4.9-5.3-8.5-6.1-3.7-.9-7.1-.3-10.3,1.7-3.2,2-5.3,5-6.3,8.9-.9,4-.4,7.6,1.6,10.8"/>
  <path class="st0" d="M434.7,1075.5h.9c3.4.6,6.7,1.7,9.7,3.6,3,1.9,5.3,4.2,6.9,6.9l-5.6,4c-1.2-1.9-2.9-3.5-5.2-4.9-2.3-1.4-4.5-2.2-6.6-2.5h-.7c-2.6-.4-4.7-.1-6.4.7-1.7.8-2.7,2-2.9,3.8-.2,1.5.2,2.8,1.3,3.7,1.1,1,3.2,1.8,6.3,2.5l3.9,1c10.2,2.2,14.7,7.3,13.7,15.2-.5,3.9-2.5,6.9-6,8.9-3.5,2.1-7.8,2.7-12.9,2.1h-.5c-4.2-.6-8-1.9-11.5-4-3.5-2-5.9-4.5-7.2-7.2l5.6-4.1c1,2,2.9,3.7,5.6,5.2,2.7,1.5,5.5,2.5,8.4,2.9h.3c2.6.4,4.8.2,6.6-.6,1.8-.8,2.8-2.2,3-4.1.3-2.1-.2-3.7-1.5-4.7-1.3-1-3.3-1.8-6.1-2.5l-3.7-.9c-10.2-2.3-14.9-7-13.9-14,.5-4,2.6-7,6.1-8.9,3.6-1.9,7.8-2.6,12.7-2"/>
  <path class="st0" d="M481.4,1079.3c6.2.2,11.3,2.5,15.3,7,4,4.5,5.9,9.8,5.7,16.1-.2,6.3-2.4,11.6-6.6,15.8-4.2,4.2-9.5,6.3-15.7,6.1-2.9,0-5.5-.8-7.9-2.2-2.4-1.4-4.3-3.2-5.7-5.5l-.6,22.8-8.8-.2,1.7-60,6,.2.3,8.1c1.7-2.6,4-4.6,6.9-6.1,2.9-1.5,6.1-2.2,9.5-2.1M489.9,1091.9c-2.6-2.7-5.8-4.1-9.5-4.2-3.7-.1-7,1.1-9.8,3.7-2.8,2.6-4.3,5.9-4.4,9.9-.1,4,1.2,7.4,3.8,10.2,2.6,2.7,5.8,4.2,9.6,4.3,3.7.1,7-1.1,9.8-3.7,2.8-2.6,4.2-5.9,4.3-10,.1-4.1-1.1-7.5-3.8-10.2"/>
  <path class="st0" d="M518.5,1073.2c-1,1-2.2,1.5-3.6,1.5-1.5,0-2.7-.3-3.8-1.2-1.1-.9-1.6-2-1.7-3.3,0-1.3.4-2.5,1.4-3.4,1-.9,2.2-1.4,3.7-1.5,1.5,0,2.7.3,3.8,1.2,1,.9,1.6,1.9,1.7,3.2,0,1.3-.4,2.5-1.3,3.4M512.8,1123.5l-2.2-43.9,8.8-.4,2.2,43.9-8.8.4Z"/>
  <path class="st0" d="M576.3,1117.1l-5.9.8-1.6-7.9c-1.3,2.8-3.3,5.2-5.9,7.1-2.6,1.9-5.7,3.1-9,3.5-6.2.8-11.6-.7-16.2-4.5-4.7-3.8-7.4-8.8-8.2-15-.8-6.3.5-11.8,4.1-16.7,3.5-4.9,8.4-7.7,14.5-8.5,3.4-.4,6.6,0,9.6,1.1,3,1.2,5.6,3,7.5,5.4l-.5-8.1,5.9-.8,5.6,43.6ZM543.5,1109.4c3,2.3,6.4,3.2,10.1,2.7,3.7-.5,6.8-2.2,9.1-5.2,2.4-3,3.3-6.5,2.8-10.5-.5-4.1-2.3-7.2-5.4-9.5-3-2.3-6.4-3.2-10.1-2.7-3.7.5-6.7,2.2-9.1,5.2-2.3,3-3.2,6.5-2.7,10.6.5,4.1,2.3,7.2,5.3,9.5"/>
  <path class="st0" d="M601.1,1066c5.9-1.4,10.9-.7,15.1,2.1,4.1,2.9,7,7.5,8.5,13.9l5.6,22.7-8.5,2.1-5.5-22.3c-2.1-8.5-6.9-11.9-14.5-10-3.8.9-6.5,2.9-8.1,5.9-1.6,3-1.8,6.9-.7,11.5l5,20.6-8.5,2.1-10.4-42.7,5.8-1.4,2.6,8c.8-3.3,2.5-6,4.9-8.2,2.5-2.2,5.4-3.7,8.7-4.5"/>
  <path class="st0" d="M668.2,1024.5c8.4-3.7,16.8-3.6,25.3,0l-3.3,7.7c-6.1-2.5-12.2-2.3-18.4.4-5.6,2.5-9.5,6.5-11.7,12-2.1,5.6-1.9,11.3.7,17.3,2.6,5.9,6.6,10,12.2,12.2,5.5,2.2,11.1,2.1,16.8-.4,4.8-2.1,8.4-5.4,10.6-9.9l-5.1-11.7-12.9,5.6-2.9-6.7,21.6-9.4,9.5,21.6c-3.1,8.8-8.8,15-17.2,18.6-7.9,3.5-15.9,3.6-24,.4-8-3.2-13.8-8.7-17.2-16.7-3.5-7.9-3.6-15.9-.5-24,3.1-8,8.7-13.8,16.6-17.3"/>
  <path class="st0" d="M762.9,1044l-5.1,3-4.6-6.7c0,3.1-1,6.1-2.6,8.8-1.7,2.8-4,5.1-6.9,6.8-5.3,3.2-10.9,3.9-16.7,2.2-5.8-1.7-10.3-5.2-13.4-10.6-3.2-5.4-4.2-11.1-2.8-16.9,1.3-5.9,4.7-10.4,10-13.5,2.9-1.7,6-2.6,9.3-2.7,3.3,0,6.3.6,9,2l-3.7-7.2,5.1-3,22.3,37.8ZM729.7,1049.8c3.7.9,7.1.4,10.3-1.5,3.2-1.9,5.3-4.7,6.3-8.4,1-3.7.5-7.3-1.6-10.7-2.1-3.5-5-5.7-8.7-6.7-3.7-.9-7.2-.4-10.4,1.5-3.2,1.9-5.3,4.7-6.3,8.4-1,3.7-.4,7.3,1.7,10.8,2.1,3.5,5,5.7,8.6,6.6"/>
  <rect class="st0" x="754.8" y="978.2" width="8.8" height="61.5" transform="translate(-440.7 615.9) rotate(-34.9)"/>
  <rect class="st0" x="770.2" y="966.9" width="8.8" height="61.5" transform="translate(-445.9 672.6) rotate(-37.3)"/>
  <path class="st0" d="M791.6,965.8c3.5-3.1,7.2-4.9,11.2-5.5,3.9-.6,7.8,0,11.6,1.9,1.8.8,3.6,2.1,5.3,3.8,1.7,1.7,2.9,3.4,3.6,5l-25.1,22.1c2.5,2.8,5.4,4.2,8.8,4.2,3.4,0,6.6-1.4,9.6-4.1,3.8-3.4,6.5-7.4,8.1-12.2l6.9.7c-1.5,7.3-4.7,13.1-9.7,17.6-5,4.5-10.6,6.5-16.5,6.1-6-.4-11.1-3-15.4-7.9-4.2-4.8-6.2-10.1-6-16.1.2-5.9,2.8-11.1,7.8-15.5M797,971.8c-2.7,2.4-4.3,5.2-4.6,8.4-.3,3.2.4,6.1,2.4,8.5l18.9-16.7c-1-1.1-2.2-2-3.6-2.5-2.1-1-4.3-1.3-6.6-.9-2.3.4-4.4,1.4-6.4,3.1"/>
  <path class="st0" d="M824.6,933.5c4.2-4.6,9.4-7.1,15.7-7.3,6.2-.3,11.6,1.7,16.2,5.9,4.6,4.2,7,9.4,7.3,15.6.3,6.2-1.7,11.6-5.9,16.2-4.2,4.6-9.4,7.1-15.6,7.3-6.2.3-11.6-1.7-16.2-5.9-4.6-4.2-7.1-9.4-7.4-15.6-.3-6.2,1.7-11.6,5.8-16.2M840.3,934.7c-3.8.2-7,1.7-9.5,4.5-2.5,2.8-3.7,6-3.6,9.8.2,3.8,1.7,7.1,4.8,9.8,3,2.8,6.4,4,10.2,3.8,3.8-.2,6.9-1.7,9.4-4.5,2.5-2.8,3.7-6.1,3.6-9.9-.1-3.8-1.7-7.1-4.7-9.8-3-2.8-6.4-4-10.2-3.8"/>
  <path class="st0" d="M856.5,893.6c3.5-5,7.8-7.7,12.8-8.3,5-.5,10.2,1.1,15.6,4.8l19.1,13.5-5.1,7.2-18.7-13.2c-7.2-5.1-13-4.4-17.5,2-2.3,3.2-3,6.5-2.2,9.8.8,3.3,3.1,6.4,7,9.1l17.4,12.2-5.1,7.2-35.9-25.3,3.4-4.9,7.2,4.4c-1.5-3-2.1-6.1-1.7-9.4.4-3.2,1.6-6.3,3.6-9.1"/>
  <rect class="st0" x="480.5" y="270.8" width="24.5" height="363.3"/>
  <path class="st0" d="M332.6,615.4l-24.4-2.1,1.1-12.2c10.6-121.9,67.8-232.4,161.3-311.4l9.4-7.9,15.8,18.8-9.4,7.9c-88.5,74.7-142.7,179.4-152.7,294.7l-1.1,12.2Z"/>
  <path class="st0" d="M645.5,615.3c-3.6-61.7-19.8-120.7-48.3-175.3l21.8-11.3c30.1,57.7,47.2,120,51,185.2l-24.5,1.4Z"/>
  <path class="st0" d="M179.1,175.4c.2,0,.4-.1.6-.2,3.5-.8,7-.9,10.6-.2,3.6.7,6.9,2,9.8,3.9-1.3,1.9-2.6,3.7-3.9,5.6-2.1-1.3-4.6-2.1-7.3-2.5-2.8-.4-5.3-.4-7.5.2-.2,0-.4.1-.6.2-2.6.6-4.7,1.8-6.5,3.5-1.8,1.7-2.4,3.7-1.8,5.9.4,1.7,1.6,2.9,3.3,3.4,1.8.5,4.3.6,7.5.3,1.6-.2,3.2-.4,4.8-.6,5.5-.6,9.9-.1,13.3,1.4,3.4,1.6,5.5,4.6,6.5,9,1,4.4,0,8.3-2.8,11.7-2.9,3.4-6.9,5.8-12.1,7.1-.1,0-.2,0-.3,0-4.6,1.1-8.8,1.2-12.7.1-3.9-1-7.2-2.8-9.7-5.3,1.2-1.9,2.5-3.8,3.7-5.7,1.8,1.9,4.1,3.2,7.1,4,3,.8,6.3.8,10-.1.1,0,.2,0,.3,0,3.2-.8,5.7-2.1,7.3-4,1.7-1.8,2.3-3.9,1.7-6.2-.5-2.3-1.8-3.8-3.7-4.5-1.9-.7-4.6-.9-7.9-.5-1.6.2-3.2.4-4.7.6-10.9,1.3-17.2-1.5-19-8.6-1.1-4.2-.3-8,2.5-11.5,2.8-3.4,6.7-5.8,11.7-7"/>
  <path class="st0" d="M229.5,207.9c1.9-.4,3.8-.8,5.8-1.2.5,2.4,1,4.7,1.4,7.1-6.3,1.3-12.6,2.6-18.9,4-.5-2.3-1-4.7-1.5-7,1.9-.4,3.8-.8,5.7-1.2-2.4-11.4-4.9-22.9-7.3-34.3-2,.4-3.9.8-5.9,1.3-.5-2.3-1-4.7-1.5-7,6.5-1.4,13.1-2.8,19.6-4.1.5,2.4,1,4.7,1.4,7.1-2,.4-3.9.8-5.9,1.2,2.4,11.4,4.8,22.9,7.1,34.3"/>
  <path class="st0" d="M257.9,159c7.5-1.3,14.3.3,20.3,4.8-1.4,1.8-2.8,3.6-4.3,5.3-4.4-3-9.3-4.1-14.8-3.1-5,.9-8.9,3.3-11.7,7.3-2.8,4-3.6,8.5-2.6,13.6,1,5.1,3.5,9,7.4,11.7,4,2.7,8.4,3.6,13.2,2.7,5.4-1,9.6-3.6,12.6-7.8,1.9,1.2,3.8,2.5,5.6,3.7-4.1,6.2-9.8,9.9-17,11.2-6.8,1.2-13.1,0-18.8-4-5.8-3.9-9.3-9.2-10.7-16.1-1.4-6.8,0-13.2,3.9-18.9,4-5.8,9.6-9.3,16.7-10.6"/>
  <path class="st0" d="M303.2,152.3c5.4-.8,10.9-1.5,16.3-2.2,6.8-.9,12.4.2,16.8,3.1,4.5,2.9,6.9,7.1,7.6,12.6.6,5.5-.8,10.2-4.4,14-3.6,3.8-8.6,6.1-15.2,7-2.8.4-5.5.7-8.3,1.1.6,4,1.1,8.1,1.7,12.1-2.5.3-5,.7-7.5,1.1-2.3-16.2-4.7-32.5-7-48.7M315.1,180.8c2.9-.4,5.9-.8,8.8-1.2,4.1-.5,7.3-1.9,9.7-4.1s3.4-5.2,3-9c-.4-3.7-2.1-6.3-5.1-7.9-3-1.6-6.5-2.1-10.6-1.6-3,.4-6,.8-9,1.2,1,7.5,2.1,15,3.1,22.5"/>
  <path class="st0" d="M357.8,183.9c-1.1,3.8-2.2,7.6-3.3,11.4-2.8.3-5.5.6-8.3.9,4.8-17,9.9-34,15.3-51,1.5-.1,3-.3,4.6-.4,8.5,15.6,16.7,31.3,24.7,47-2.8.2-5.5.5-8.3.7-1.8-3.5-3.6-7-5.4-10.6-6.4.6-12.8,1.2-19.2,1.9M365.1,158.8c-1.8,5.9-3.6,11.8-5.3,17.7,4.7-.5,9.3-.9,14-1.4-2.9-5.5-5.8-10.9-8.7-16.3"/>
  <path class="st0" d="M393.3,142.6c5.6-.4,11.2-.8,16.9-1.1,6.7-.4,12.2,1,16.3,4.1,4.1,3.1,6.3,7.4,6.5,12.7.2,3.8-.7,7.1-2.6,9.8-1.9,2.7-4.7,4.8-8.3,6.3,2.4,1,5.1,3.6,8.2,7.9,1.6,2.2,3.3,4.5,4.9,6.7-2.8.1-5.7.3-8.5.4-1.3-1.8-2.6-3.6-4-5.4-2.1-2.9-3.9-4.7-5.3-5.5-1.4-.8-3.4-1.2-6-1.1-2.6.2-5.2.3-7.8.5.3,4.3.6,8.6.9,12.8-2.5.2-5,.4-7.6.6-1.2-16.3-2.5-32.5-3.7-48.8M401.7,149.1c.5,7.3,1,14.5,1.5,21.8,3.1-.2,6.3-.4,9.5-.6,4-.2,7.2-1.3,9.6-3.3,2.4-2,3.6-4.8,3.4-8.4-.2-3.5-1.6-6.2-4.3-7.9-2.7-1.7-6.1-2.5-10.1-2.2-3.2.2-6.4.4-9.6.6"/>
  <path class="st0" d="M459.7,188.1c-1.5,0-2.9,0-4.4.1-7.3-16-14.9-32-22.7-48,2.9-.1,5.8-.2,8.6-.4,5.4,11.5,10.7,22.9,15.8,34.4,4.4-11.8,8.9-23.5,13.6-35.2,2.9,0,5.8,0,8.7-.1-6.8,16.3-13.4,32.7-19.7,49.1"/>
  <path class="st0" d="M499.7,180.6c1.9,0,3.9,0,5.9,0,0,2.4,0,4.7,0,7.1-6.4,0-12.8,0-19.2,0,0-2.4,0-4.7,0-7.1,1.9,0,3.9,0,5.9,0,0-11.5,0-23,0-34.5-2,0-4,0-6,0,0-2.4,0-4.7,0-7.1,6.6,0,13.3,0,19.9,0,0,2.4,0,4.7,0,7.1-2,0-4,0-6,0,0,11.5,0,23-.1,34.5"/>
  <path class="st0" d="M532.5,139.2c.2,0,.4,0,.7,0,3.5.1,7,1,10.3,2.5,3.3,1.6,6.1,3.7,8.4,6.2-1.8,1.4-3.5,2.9-5.2,4.3-1.7-1.7-3.8-3.2-6.4-4.3-2.5-1.1-5-1.7-7.2-1.8-.2,0-.4,0-.7,0-2.6,0-5,.5-7.1,1.6-2.1,1.2-3.2,2.9-3.3,5.1,0,1.8.7,3.1,2.3,4,1.6.9,3.9,1.7,7.1,2.2,1.6.2,3.1.5,4.7.7,5.4.8,9.5,2.4,12.4,4.8,2.8,2.3,4.1,5.7,3.9,10.2-.2,4.4-2.1,7.8-5.8,10.3-3.6,2.5-8.1,3.7-13.4,3.6-.1,0-.2,0-.3,0-4.7-.1-8.7-1.2-12.2-3.1-3.5-2-6.1-4.5-7.9-7.5,1.7-1.5,3.3-3,5-4.4,1.2,2.2,3.1,4.1,5.8,5.6,2.7,1.5,5.9,2.4,9.6,2.5.1,0,.2,0,.3,0,3.3,0,6-.6,8.1-1.9,2.1-1.3,3.2-3.1,3.3-5.4,0-2.3-.7-4.1-2.4-5.2-1.7-1.2-4.2-2-7.5-2.5-1.6-.2-3.1-.5-4.7-.7-10.7-1.5-16.1-5.8-16-13.1,0-4.3,1.8-7.7,5.4-10.2,3.5-2.5,7.9-3.7,13-3.6"/>
  <path class="st0" d="M624.5,194.2c-2.5-.3-5-.5-7.5-.7,1.1-11.4,2.2-22.8,3.3-34.2-6.3,6.2-12.4,12.5-18.5,18.8-5-7.3-10.1-14.5-15.3-21.7-.8,11.4-1.6,22.9-2.4,34.3-2.5-.2-5-.3-7.6-.5,1-16.1,2-32.2,3.1-48.3,1.5.1,3.1.2,4.6.3,6.3,8.6,12.4,17.3,18.4,26,7.3-7.6,14.8-15.1,22.4-22.5,1.5.2,3,.3,4.5.5-1.6,16-3.2,32-4.9,48"/>
  <path class="st0" d="M644.8,185.5c-1.9,3.4-3.8,6.8-5.7,10.2-2.8-.3-5.5-.6-8.3-.9,8.4-15.3,17.1-30.5,26-45.5,1.5.2,3,.4,4.6.6,4.9,16.8,9.5,33.6,13.9,50.5-2.8-.4-5.5-.8-8.3-1.1-1-3.8-2-7.5-3-11.3-6.4-.8-12.8-1.6-19.2-2.4M657.3,163c-3.1,5.3-6.1,10.5-9.1,15.8,4.7.6,9.3,1.1,14,1.7-1.6-5.9-3.3-11.7-4.9-17.6"/>
  <path class="st0" d="M707.2,156.1c7.5,1.2,13.4,4.9,17.6,11.1-1.9,1.2-3.8,2.3-5.8,3.5-3.1-4.2-7.4-6.8-13-7.8-5-.8-9.5.2-13.4,2.9-3.9,2.8-6.2,6.7-6.9,11.7-.7,5,.3,9.4,3.2,13.2,2.8,3.8,6.7,6.1,11.6,6.8,4.2.7,8,0,11.5-1.9.6-3.3,1.1-6.5,1.7-9.8-3.8-.6-7.5-1.3-11.3-1.9.3-1.9.6-3.8.9-5.6,6.3,1,12.7,2.1,19,3.2-1.1,6.1-2.1,12.1-3.2,18.2-5.9,4.3-12.5,5.9-19.7,4.8-6.8-1.1-12.3-4.3-16.5-9.8-4.2-5.4-5.8-11.5-4.8-18.2.9-6.7,4.2-12.1,9.9-16.1,5.7-4,12.1-5.4,19.2-4.3"/>
  <path class="st0" d="M764.5,216.2c-1.4-.3-2.9-.6-4.3-.9-6.2-12.8-12.6-25.6-19.3-38.3-2.1,11.1-4.2,22.2-6.3,33.2-2.5-.5-5-.9-7.5-1.4,2.9-15.7,5.8-31.4,8.7-47.2,1.5.3,3,.6,4.5.9,6.8,12.8,13.3,25.6,19.6,38.4,2.3-11,4.6-22,6.9-33.1,2.6.5,5.1,1.1,7.7,1.7-3.3,15.6-6.7,31.2-10,46.8"/>
  <path class="st0" d="M785,209.7c-2.3,3.1-4.5,6.3-6.8,9.4-2.7-.6-5.5-1.2-8.2-1.8,10.1-14.1,20.3-28.1,30.9-42,1.5.4,3,.7,4.5,1.1,3.1,17.1,5.9,34.2,8.5,51.3-2.7-.7-5.4-1.4-8.2-2.1-.6-3.8-1.2-7.6-1.8-11.5-6.3-1.5-12.6-3-18.9-4.5M799.9,188.9c-3.6,4.8-7.2,9.7-10.8,14.6,4.6,1.1,9.2,2.2,13.8,3.3-1-5.9-2-11.9-3-17.9"/>
  <path class="st0" d="M885.2,604c-.3,5-.5,10.1-.9,15.1-.3,3.8-.5,7.5-.8,11.3-8.6,1.8-17.3,4.1-26.2,6.5-4.3,1.2-8.6,2.4-13,3.7-26.2,7.4-53.3,15.1-80.9,15.1s-54.7-7.7-80.9-15.1c-25.7-7.3-49.9-14.2-73.9-14.2s-24.1,1.7-36.3,4.4c-12.3,2.6-24.7,6.1-37.6,9.8-26.2,7.4-53.3,15.1-80.9,15.1s-27.5-1.9-41-4.8c-13.5-2.9-26.9-6.7-40-10.4-25.7-7.3-49.9-14.2-73.9-14.2h0c-24,0-48.2,6.9-73.8,14.1-26.2,7.4-53.3,15.1-80.9,15.1h0c-4.5,0-9-.2-13.5-.6-8.8-.7-17.5-2.1-26.2-3.9-.9-8.3-1.7-17.1-2.5-26.8,8.8,2.1,17.5,3.7,26.1,4.7,5.4.6,10.8,1,16.1,1h0c24,0,48.3-6.9,73.9-14.1,26.2-7.4,53.3-15.1,80.8-15.1h0c27.6,0,54.7,7.7,80.9,15.2,25.7,7.3,49.9,14.2,73.9,14.2h0c24,0,48.2-6.8,73.9-14.1,26.2-7.4,53.3-15.1,80.9-15.1s27.5,1.9,41,4.8c13.5,2.9,26.8,6.6,39.9,10.4,25.7,7.3,49.9,14.2,73.9,14.2s48.3-6.9,73.9-14.2c7.2-2,14.5-4.1,21.8-6,8.6-2.2,17.2-4.3,26-5.9"/>
  <path class="st0" d="M881.5,653.2c-.7,6.4-1.4,12-2,17.1-.4,3.3-.9,6.7-1.4,10-8.9,2.2-17.9,4.7-27,7.4-.5.1-1,.3-1.5.4-26,7.4-52.8,15.1-80.2,15.1s-54.3-7.7-80.3-15.2c-25.4-7.3-49.4-14.1-73.1-14.2h0c-23.7,0-47.8,6.9-73.1,14.1-25.9,7.4-52.8,15.1-80.1,15.1h0c-27.4,0-54.2-7.7-80.2-15.2-25.4-7.3-49.4-14.2-73.1-14.2h-.1c-23.7,0-47.7,6.8-73.1,14.1-26,7.4-53,15.2-80.3,15.1-6,0-12-.4-18-1.1-9-1-18-2.7-26.9-4.7-1.5-8.7-3-17.9-4.2-27.4,9,2.3,17.9,4.3,26.7,5.7,7.6,1.2,15.1,1.8,22.5,1.9h.1c23.7,0,47.7-6.8,73.1-14.1,25.9-7.4,52.8-15,80.1-15h.1c27.4,0,54.2,7.7,80.2,15.2,25.4,7.3,49.4,14.2,73.2,14.2h0c23.7,0,47.7-6.8,73.1-14.1,26-7.4,52.8-15.1,80.2-15.1h0c27.3,0,54.2,7.7,80.1,15.2,25.4,7.3,49.4,14.2,73.3,14.2s23.8-1.7,35.9-4.4c12.1-2.6,24.5-6.1,37.2-9.8,4.1-1.2,8.2-2.4,12.4-3.5,8.8-2.5,17.6-4.8,26.6-6.7"/>
  <path class="st0" d="M874.3,703.3c-1.3,6.8-2.6,13.2-3.9,19.3-.7,3-1.3,5.9-2.1,8.8-4.7,1.3-9.5,2.7-14.3,4.1-4.7,1.4-9.4,2.7-14.2,4-21.3,6-43.1,11.1-65.2,11.1s-53.8-7.7-79.5-15.1c-14.7-4.3-29.1-8.4-43.1-11.1-8.6-1.6-17-2.7-25.5-3-1.2,0-2.5,0-3.8,0h0c-23.5,0-47.2,6.8-72.3,14.1-14.5,4.2-29.2,8.5-44.2,11.4-8.4,1.7-17,2.9-25.6,3.4-3.2.2-6.4.3-9.6.3h-.1c-27.1,0-53.8-7.8-79.5-15.2-11.6-3.4-22.9-6.7-34.1-9.2-9-2.1-17.9-3.7-26.6-4.5-3.9-.4-7.8-.5-11.6-.5h-.1c-23.4,0-47.1,6.8-72.2,14-25.7,7.4-52.3,15-79.3,15h-.2c-6,0-11.9-.4-17.8-1.1-9.4-1.1-18.8-2.9-28.1-5-2.5-9.3-4.7-18.6-6.6-27.7,0-.1,0-.3,0-.4l27.6,6.4c8.4,1.4,16.7,2.3,25,2.3h.2c23.4,0,47.1-6.8,72.2-14,25.7-7.4,52.3-15,79.3-15h.2c2.9,0,5.8,0,8.7.3l26,3.4c15.2,2.9,30.1,7.3,44.7,11.5,25.1,7.3,48.9,14.2,72.4,14.2h0c3.2,0,6.4-.1,9.6-.4,8.5-.6,17-2,25.6-3.9,12.1-2.6,24.4-6.2,37.1-9.8,25.7-7.4,52.3-15.1,79.4-15.1h0c2.2,0,4.5,0,6.7.2l25.5,3c16,2.9,31.8,7.5,47.2,11.9,25.1,7.3,48.9,14.2,72.4,14.2s23.6-1.7,35.6-4.4c12-2.6,24.1-6.1,36.6-9.7,0,0,.2,0,.3,0,9-2.6,18.1-5.3,27.4-7.6"/>
  <rect class="st0" x="479.9" y="741.9" width="25.6" height="269.9"/>
  <path class="st0" d="M477.2,1016c-20.5-17.3-39.7-36.5-57-57-57.8-68.4-95.2-151.2-108.1-239.5l25.3-3.7c12.2,83.5,47.6,161.9,102.3,226.6,16.4,19.4,34.5,37.5,53.9,53.9l-16.5,19.6Z"/>
  <path class="st0" d="M508.4,1016l-16.5-19.6c85.7-72.4,141.4-173.4,156.7-284.4l25.4,3.5c-16.2,117.3-75.1,224-165.6,300.4"/>
  <path class="st0" d="M735.6,931.5c-67.9-56.8-154.1-88-242.8-88s-172.2,30.3-239.5,85.4l-16.2-19.8c71.9-58.8,162.7-91.1,255.7-91.1s186.7,33.4,259.2,94l-16.4,19.6Z"/>
</svg>